<?xml version="1.0" encoding="UTF-8" standalone="no"?>
<!-- Created with Inkscape (http://www.inkscape.org/) -->

<svg
   version="1.1"
   id="svg1"
   width="960"
   height="160"
   viewBox="0 0 960 160"
   sodipodi:docname="notice_round_backup.svg"
   inkscape:version="1.4 (e7c3feb100, 2024-10-09)"
   xml:space="preserve"
   inkscape:export-filename="LATTICEOBJECT.png"
   inkscape:export-xdpi="96"
   inkscape:export-ydpi="96"
   xmlns:inkscape="http://www.inkscape.org/namespaces/inkscape"
   xmlns:sodipodi="http://sodipodi.sourceforge.net/DTD/sodipodi-0.dtd"
   xmlns="http://www.w3.org/2000/svg"
   xmlns:svg="http://www.w3.org/2000/svg"><defs
     id="defs1">
        
        
    
        
        
    
        
    
        
    
        
        
    
        
        
    
        
        
    
        
        
    
            
        
            
        
        
        
    
        
        
    
        
        
    
        
    
        
        
    
        
        
    
            
        
            
        
            
        
        
        
    
        
        
    
        
        
    
            
        
            
        
        
        
    
        
        
    
            
        </defs><sodipodi:namedview
     id="namedview1"
     pagecolor="#ffffff"
     bordercolor="#999999"
     borderopacity="1"
     inkscape:showpageshadow="2"
     inkscape:pageopacity="0"
     inkscape:pagecheckerboard="true"
     inkscape:deskcolor="#ffffff"
     inkscape:zoom="0.5902"
     inkscape:cx="125.38123"
     inkscape:cy="-177.05862"
     inkscape:window-width="2560"
     inkscape:window-height="1354"
     inkscape:window-x="0"
     inkscape:window-y="0"
     inkscape:window-maximized="1"
     inkscape:current-layer="g1"
     showborder="true" /><g
     inkscape:groupmode="layer"
     inkscape:label="Image"
     id="g1"
     transform="translate(-273.10812,-1461.3866)"><rect
       style="fill:#3a3a3a;fill-opacity:1;stroke-width:1.93764;stroke-linecap:round;stroke-linejoin:round"
       id="rect4"
       width="3097.2551"
       height="2238.0818"
       x="-848.04407"
       y="362.48465"
       ry="16.67823"
       sodipodi:insensitive="true" /><g
       id="g77"
       transform="translate(-1088.6098,-150.95807)"><rect
         style="fill:#ffffff;fill-opacity:0.14902;stroke:none;stroke-width:0.884021;stroke-linecap:round;stroke-linejoin:round"
         id="rect5"
         width="320"
         height="160"
         x="1361.7179"
         y="801.11804"
         ry="80" /><path
         id="path45"
         style="fill:#ffffff;fill-opacity:1;stroke-width:7.57852"
         d="m 1392.4577,828.06824 a 3.7892593,3.7892593 0 0 0 -3.789,3.78906 v 26.52539 h 7.5781 v -22.73632 h 22.7363 v -7.57813 z m 71.9961,0 v 7.57813 h 22.7344 v 22.73632 h 7.5801 V 831.8573 a 3.7892593,3.7892593 0 0 0 -3.7891,-3.78906 z m 156.211,0 a 3.7892593,3.7892593 0 0 0 -3.7891,3.78906 v 30.31446 a 3.7892593,3.7892593 0 0 0 3.7891,3.78906 h 30.3125 a 3.7892593,3.7892593 0 0 0 3.791,-3.78906 V 831.8573 a 3.7892593,3.7892593 0 0 0 -3.791,-3.78906 z m -68.2071,7.57813 a 3.7892593,3.7892593 0 0 0 -3.789,3.78906 v 22.73633 a 3.7892593,3.7892593 0 0 0 3.789,3.78906 h 3.7891 v 37.89258 h -3.7891 a 3.7892593,3.7892593 0 0 0 -3.789,3.78906 v 22.73633 a 3.7892593,3.7892593 0 0 0 3.789,3.78906 h 22.7364 a 3.7892593,3.7892593 0 0 0 3.789,-3.78906 v -3.84961 h 37.8926 v 3.84961 a 3.7892593,3.7892593 0 0 0 3.7891,3.78906 h 22.7343 a 3.7892593,3.7892593 0 0 0 3.7891,-3.78906 v -22.73633 a 3.7892593,3.7892593 0 0 0 -3.7891,-3.78906 h -3.789 v -26.52539 a 3.7892593,3.7892593 0 1 0 -7.5782,0 v 26.52539 h -11.3671 a 3.7892593,3.7892593 0 0 0 -3.7891,3.78906 v 11.30664 h -37.8926 v -11.30664 a 3.7892593,3.7892593 0 0 0 -3.789,-3.78906 h -11.3692 v -37.89258 h 11.3692 a 3.7892593,3.7892593 0 0 0 3.789,-3.78906 v -11.42774 h 26.5235 a 3.79004,3.79004 0 1 0 0,-7.58008 h -26.5235 v -3.72851 a 3.7892593,3.7892593 0 0 0 -3.789,-3.78906 z m 3.7891,7.57812 h 15.1562 v 15.1582 h -15.1562 z m -141.0527,7.58008 a 3.7892593,3.7892593 0 0 0 -3.7911,3.78906 v 53.04883 a 3.7892593,3.7892593 0 0 0 3.7911,3.78906 h 53.0488 a 3.7892593,3.7892593 0 0 0 3.789,-3.78906 v -53.04883 a 3.7892593,3.7892593 0 0 0 -3.789,-3.78906 z m -26.5254,53.04883 v 26.52539 a 3.7892593,3.7892593 0 0 0 3.789,3.78906 h 26.5254 v -7.57812 h -22.7363 V 903.8534 Z m 98.5195,0 v 22.73633 h -22.7344 v 7.57812 h 26.5254 a 3.7892593,3.7892593 0 0 0 3.7891,-3.78906 V 903.8534 Z m 69.0586,7.57812 h 15.1562 v 15.15821 h -15.1562 z m 68.207,0 h 15.1563 v 15.15821 h -15.1563 v -3.22852 a 3.7892593,3.7892593 0 0 0 0,-1.21289 z" /></g><g
       id="g76"
       transform="translate(-1075.9065,-185.68181)"><rect
         style="fill:#ffffff;fill-opacity:0.14902;stroke:none;stroke-width:1.0827;stroke-linecap:round;stroke-linejoin:round"
         id="rect49"
         width="480"
         height="160"
         x="1349.0146"
         y="1038.6484"
         ry="80" /><path
         id="path1-5"
         style="fill:#ffffff;fill-opacity:1;stroke-width:7.57852"
         d="m 1566.278,1065.621 a 3.7892593,3.7892593 0 0 0 -2.6816,1.1152 l -22.7363,22.7344 a 3.7892593,3.7892593 0 0 0 -1.1055,2.6758 v 68.207 a 3.7892593,3.7892593 0 0 0 3.8047,3.7891 l 34.1562,-0.053 -0.016,-7.5781 -30.3672,0.053 v -62.8339 l 20.5157,-20.5235 h 62.8476 v 62.8496 l -13.9902,13.9903 c -3.7211,3.5695 1.7899,9.0785 5.3594,5.3574 l 15.0957,-15.0957 a 3.7892593,3.7892593 0 0 0 1.1132,-2.6836 v -68.215 a 3.7892593,3.7892593 0 0 0 -3.789,-3.789 z m 163.7559,0.01 a 3.7892593,3.7892593 0 0 0 -2.6758,1.1074 l -15.1035,15.1035 a 3.3648623,3.3648623 0 0 0 -1.1055,2.6758 v 3.7891 h 7.5782 l 0.023,-2.2442 12.8516,-12.8535 h 62.8496 v 62.8496 l -12.8535,12.8614 -2.2364,0.014 v 7.5801 h 3.791 a 3.3875978,3.3875978 0 0 0 2.6211,-1.0547 l 15.1582,-15.1562 a 3.7892593,3.7892593 0 0 0 1.1055,-2.6758 v -68.207 a 3.7892593,3.7892593 0 0 0 -3.7891,-3.7891 z m -319.9922,3.7598 a 3.7892593,3.7892593 0 0 0 -2.6758,1.1054 l -15.1113,15.1114 c -3.7211,3.5771 1.7803,9.0803 5.3574,5.3593 l 13.9981,-13.998 h 62.8496 v 62.8476 l -20.5156,20.5157 h -62.8184 l 0.029,-22.7891 -7.5781,-0.014 -0.053,26.5918 a 3.7892593,3.7892593 0 0 0 3.7891,3.7891 h 68.207 a 3.7892593,3.7892593 0 0 0 2.6836,-1.1133 l 22.7344,-22.7363 a 3.7892593,3.7892593 0 0 0 1.1074,-2.6739 v -68.207 a 3.7892593,3.7892593 0 0 0 -3.789,-3.789 z m 289.7383,26.4941 a 3.7892593,3.7892593 0 0 0 -3.7891,3.7891 v 68.207 a 3.7892593,3.7892593 0 0 0 3.7891,3.7891 h 68.207 a 3.7892593,3.7892593 0 0 0 3.7891,-3.7891 v -68.207 a 3.7892593,3.7892593 0 0 0 -3.7891,-3.7891 z m -110.7129,0.01 a 3.7892593,3.7892593 0 0 0 -3.7891,3.7891 v 68.207 a 3.7892593,3.7892593 0 0 0 3.7891,3.7891 h 15.1582 a 3.7892593,3.7892593 0 0 0 3.7891,-3.7891 v -68.207 a 3.7892593,3.7892593 0 0 0 -3.7891,-3.7891 z m -209.2949,3.7656 a 3.7892593,3.7892593 0 0 0 -3.7891,3.7891 v 22.7363 a 3.7892593,3.7892593 0 0 0 3.7891,3.7891 h 22.7363 a 3.7892593,3.7892593 0 0 0 3.7891,-3.7891 v -22.7363 a 3.7892593,3.7892593 0 0 0 -3.7891,-3.7891 z" /></g><g
       id="g75"
       transform="translate(-1082.6839,-188.7377)"><rect
         style="fill:#ffffff;fill-opacity:0.14902;stroke:none;stroke-width:1.0827;stroke-linecap:round;stroke-linejoin:round"
         id="rect57"
         width="480"
         height="160"
         x="1355.792"
         y="1244.511"
         ry="80" /><path
         id="path1"
         style="fill:#ffffff;fill-opacity:1;stroke-width:7.57852"
         d="m 1767.1569,1271.3729 c -6.2144,0 -11.3378,5.1216 -11.3378,11.336 0,6.2144 5.1158,11.3379 11.3378,11.3379 6.2144,0 11.3379,-5.1159 11.3379,-11.3379 0,-6.2144 -5.1235,-11.336 -11.3379,-11.336 z m -380.625,0.088 a 3.7892593,3.7892593 0 0 0 -3.789,3.7891 v 26.5254 h 7.5781 v -22.7364 h 22.7363 v -7.5781 z m 71.9961,0 v 7.5781 h 22.7344 v 22.7364 h 7.5801 V 1275.25 a 3.7892593,3.7892593 0 0 0 -3.7891,-3.7891 z m 156.211,0 a 3.7892593,3.7892593 0 0 0 -3.7891,3.7891 v 30.3144 a 3.7892593,3.7892593 0 0 0 3.7891,3.7891 h 30.3125 a 3.7892593,3.7892593 0 0 0 3.791,-3.7891 V 1275.25 a 3.7892593,3.7892593 0 0 0 -3.791,-3.7891 z m 91.7597,7.4903 a 3.7892593,3.7892593 0 0 0 -3.789,3.789 v 22.7363 a 3.7892593,3.7892593 0 0 0 3.789,3.7891 h 22.7364 a 3.7892593,3.7892593 0 0 0 3.789,-3.7891 v -22.7363 a 3.7892593,3.7892593 0 0 0 -3.789,-3.789 z m -159.9668,0.088 a 3.7892593,3.7892593 0 0 0 -3.789,3.7911 v 22.7343 a 3.7892593,3.7892593 0 0 0 3.789,3.7891 h 3.7891 v 37.8926 h -3.7891 a 3.7892593,3.7892593 0 0 0 -3.789,3.789 v 22.7364 a 3.7892593,3.7892593 0 0 0 3.789,3.789 h 22.7364 a 3.7892593,3.7892593 0 0 0 3.789,-3.789 v -3.8496 h 37.8926 v 3.8496 a 3.7892593,3.7892593 0 0 0 3.7891,3.789 h 22.7344 a 3.7892593,3.7892593 0 0 0 3.789,-3.789 v -22.7364 a 3.7892593,3.7892593 0 0 0 -3.789,-3.789 h -3.7891 v -26.5235 a 3.7892593,3.7892593 0 1 0 -7.5781,0 v 26.5235 h -11.3672 a 3.7892593,3.7892593 0 0 0 -3.7891,3.789 v 11.3086 h -37.8926 v -11.3086 a 3.7892593,3.7892593 0 0 0 -3.789,-3.789 h -11.3692 v -37.8926 h 11.3692 a 3.7892593,3.7892593 0 0 0 3.789,-3.7891 v -11.4277 h 26.5235 a 3.7892593,3.7892593 0 1 0 0,-7.5781 h -26.5235 v -3.7285 a 3.7892593,3.7892593 0 0 0 -3.789,-3.7911 z m 3.7891,7.5801 h 15.1563 v 15.1563 h -15.1563 z m 194.0703,7.4883 c -5.1231,-0.076 -5.1231,7.6539 0,7.5781 h 11.4746 l -0.1074,24.9121 c -12.5804,10.6857 -24.5614,19.8704 -30.2226,46.2891 -1.3489,5.1079 6.5173,6.8058 7.3964,1.5918 5.1231,-23.8724 14.5819,-30.9813 26.6621,-41.1289 12.0044,10.1552 21.4542,17.2553 26.6758,41.1504 1.0079,5.0473 8.6015,3.3805 7.3965,-1.6289 -5.7824,-26.4869 -17.818,-35.6492 -30.3301,-46.3653 l 0.1075,-24.8203 h 41.6972 c 4.9791,-0.068 4.9791,-7.5023 0,-7.5781 h -23.0625 a 18.900825,18.900825 0 0 1 -14.9297,7.5176 c -6.0401,0 -11.4279,-2.9932 -14.914,-7.5176 h -0.1524 z m -335.123,0.09 a 3.7892593,3.7892593 0 0 0 -3.791,3.7891 v 53.0488 a 3.7892593,3.7892593 0 0 0 3.791,3.7911 h 53.0488 a 3.7892593,3.7892593 0 0 0 3.7891,-3.7911 v -53.0488 a 3.7892593,3.7892593 0 0 0 -3.7891,-3.7891 z m -26.5254,53.0489 v 26.5254 a 3.7892593,3.7892593 0 0 0 3.789,3.789 h 26.5254 v -7.5781 h -22.7363 v -22.7363 z m 98.5195,0 v 22.7363 h -22.7344 v 7.5781 h 26.5254 a 3.7892593,3.7892593 0 0 0 3.7891,-3.789 v -26.5254 z m 69.0586,7.5801 h 15.1563 v 15.1562 h -15.1563 z m 68.207,0 h 15.1563 v 15.1562 h -15.1563 v -3.2285 a 3.7892593,3.7892593 0 0 0 0,-1.2129 z" /></g><g
       id="g73"
       transform="translate(-1009.8272,-802.6034)"><rect
         style="fill:#ffffff;fill-opacity:0.14902;stroke:none;stroke-width:1.53117;stroke-linecap:round;stroke-linejoin:round"
         id="rect56"
         width="960"
         height="160"
         x="1282.9353"
         y="2061.1833"
         ry="80" /><path
         id="path70"
         style="fill:#ffffff;fill-opacity:1;stroke-width:7.57852"
         d="m 1313.6745,2088.1346 a 3.7892593,3.7892593 0 0 0 -3.789,3.7891 v 26.5234 h 7.5781 v -22.7343 h 22.7363 v -7.5782 z m 71.9961,0 v 7.5782 h 22.7363 v 22.7343 h 7.5782 v -26.5234 a 3.7892593,3.7892593 0 0 0 -3.7891,-3.7891 z m 156.211,0 a 3.7892593,3.7892593 0 0 0 -3.7891,3.7891 v 30.3125 a 3.7892593,3.7892593 0 0 0 3.7891,3.791 h 30.3144 a 3.7892593,3.7892593 0 0 0 3.7891,-3.791 v -30.3125 a 3.7892593,3.7892593 0 0 0 -3.7891,-3.7891 z m 415.582,0 v 15.1563 h -7.5781 v 30.3144 h 7.5781 v 15.1563 h 15.1582 v -60.627 z m 75.7851,0 v 60.627 h 15.1582 v -15.1563 h 7.5782 v -30.3144 h -7.5782 v -15.1563 z m 80.4258,0 a 3.7892593,3.7892593 0 0 0 -3.789,3.7891 v 22.7344 a 3.7892593,3.7892593 0 0 0 3.789,3.789 h 22.7364 a 3.7892593,3.7892593 0 0 0 3.789,-3.789 v -3.7891 h 45.4707 v 11.3672 a 3.7892593,3.7892593 0 0 0 3.7891,3.791 h 22.7363 a 3.7892593,3.7892593 0 0 0 3.7891,-3.791 v -22.7344 a 3.7892593,3.7892593 0 0 0 -3.7891,-3.789 h -22.7363 a 3.7892593,3.7892593 0 0 0 -3.7891,3.789 v 3.7891 h -45.4707 v -11.3672 a 3.7892593,3.7892593 0 0 0 -3.789,-3.7891 z m -400.6523,0.1075 c -3.3529,0.1158 -6.88,1.6816 -9.8906,4.6855 l -13.2618,13.2617 a 3.7892593,3.7892593 0 0 0 0,5.3653 l 22.7344,22.7363 a 3.7892593,3.7892593 0 0 0 5.3652,0 l 13.2637,-13.2617 c 3.433,-3.4406 4.9856,-7.5555 4.6446,-11.3145 -0.341,-3.7589 -2.3105,-6.8672 -4.6446,-9.209 l -7.5781,-7.5781 c -2.3493,-2.3342 -5.4576,-4.3055 -9.209,-4.6465 -0.4699,-0.043 -0.9448,-0.056 -1.4238,-0.039 z m 159.9531,0.01 c -3.3529,0.1159 -6.8801,1.6817 -9.8906,4.6856 l -5.6836,5.6836 a 3.7892593,3.7892593 0 0 0 0,5.3652 l 22.7344,22.7363 a 3.7892593,3.7892593 0 0 0 5.3672,0 l 5.6835,-5.6836 c 3.4331,-3.4407 4.9856,-7.5574 4.6446,-11.3164 -0.3411,-3.7589 -2.3104,-6.8652 -4.6446,-9.207 l -7.58,-7.5781 c -2.3493,-2.3342 -5.4557,-4.3055 -9.2071,-4.6465 -0.4698,-0.043 -0.9448,-0.056 -1.4238,-0.039 z m -399.3008,7.4649 a 3.7892593,3.7892593 0 0 0 -3.789,3.789 v 22.7344 a 3.7892593,3.7892593 0 0 0 3.789,3.791 h 3.7891 v 37.8926 h -3.7891 a 3.7892593,3.7892593 0 0 0 -3.789,3.7891 v 22.7343 a 3.7892593,3.7892593 0 0 0 3.789,3.7891 h 22.7364 a 3.7892593,3.7892593 0 0 0 3.789,-3.7891 v -3.8496 h 37.8926 v 3.8496 a 3.7892593,3.7892593 0 0 0 3.7891,3.7891 h 22.7363 a 3.7892593,3.7892593 0 0 0 3.789,-3.7891 v -22.7343 a 3.7892593,3.7892593 0 0 0 -3.789,-3.7891 h -3.7891 v -26.5254 a 3.79005,3.79005 0 1 0 -7.5801,0 v 26.5254 h -11.3671 a 3.7892593,3.7892593 0 0 0 -3.7891,3.7891 v 11.3066 h -37.8926 v -11.3066 a 3.7892593,3.7892593 0 0 0 -3.789,-3.7891 h -11.3672 v -37.8926 h 11.3672 a 3.7892593,3.7892593 0 0 0 3.789,-3.791 v -11.4277 h 26.5254 a 3.7892593,3.7892593 0 1 0 0,-7.5782 h -26.5254 v -3.7285 a 3.7892593,3.7892593 0 0 0 -3.789,-3.789 z m 643.7891,0 h 15.1582 v 15.1562 h -15.1582 z m -640,7.5781 h 15.1582 v 15.1562 h -15.1582 z m 715.7851,0 h 15.1582 v 15.1562 h -15.1582 z m -344.5937,5.5879 a 3.7892593,3.7892593 0 0 0 -2.6152,1.1055 l -47.3653,47.3671 a 3.7892593,3.7892593 0 0 0 -0.9922,1.7657 l -7.5781,30.3125 a 3.7892593,3.7892593 0 0 0 4.584,4.5859 l 30.3145,-7.5781 a 3.7892593,3.7892593 0 0 0 1.7656,-0.9863 l 47.3652,-47.3653 a 3.7892593,3.7892593 0 0 0 0,-5.3652 l -22.7344,-22.7363 a 3.7892593,3.7892593 0 0 0 -2.7441,-1.1055 z m -512.2441,1.9902 a 3.7892593,3.7892593 0 0 0 -3.7891,3.7891 v 53.0508 a 3.7892593,3.7892593 0 0 0 3.7891,3.789 h 53.0488 a 3.7892593,3.7892593 0 0 0 3.789,-3.789 v -53.0508 a 3.7892593,3.7892593 0 0 0 -3.789,-3.7891 z m 643.789,0 v 15.1582 h 45.4707 v -15.1582 z m -299.0762,5.5821 a 3.7892593,3.7892593 0 0 0 -2.623,1.1074 l -1.8945,1.8945 a 3.7892593,3.7892593 0 0 0 0,5.3652 l 22.7363,22.7344 a 3.7892593,3.7892593 0 0 0 5.3652,0 l 1.8946,-1.8945 a 3.7892593,3.7892593 0 0 0 0,-5.3653 l -22.7344,-22.7343 a 3.7892593,3.7892593 0 0 0 -2.7442,-1.1074 z m 466.6543,1.996 v 53.0508 c 0,3.7892 1.8943,7.5782 7.5782,7.5782 5.6839,0 7.58,-3.789 7.58,-7.5782 v -7.5781 c 0,-3.7893 4.0466,-7.5801 7.5782,-7.5801 a 7.5785186,7.5785186 0 0 1 7.5781,7.5801 v 18.9453 a 11.368164,11.368164 0 1 0 22.7363,0 v -11.3672 a 7.5785186,7.5785186 0 0 1 7.5781,-7.5781 7.5785186,7.5785186 0 0 0 7.5782,-7.5801 v -23.4023 a 11.367778,11.367778 0 0 1 -3.7891,0.6679 h -22.7363 a 11.367778,11.367778 0 0 1 -11.3672,-11.3691 v -3.7891 z m -476.1425,15.0254 a 3.7892593,3.7892593 0 0 0 -2.6075,1.1368 l -32.2089,32.2089 c -6.3508,6.3583 -8.0941,13.3222 -6.0782,18.6954 2.0159,5.3807 7.1852,8.6171 12.5508,8.6171 h 32.209 c 7.5786,0 15.1562,-6.0468 15.1562,-15.1562 v -26.5254 a 3.7892593,3.7892593 0 1 0 -7.5781,0 v 26.5254 c 0,5.0397 -3.8191,7.5781 -7.5781,7.5781 h -32.209 a 6.0476578,6.0476578 0 0 1 -5.4492,-3.6992 c -0.8261,-2.1978 -0.6828,-5.6604 4.3418,-10.6699 l 32.209,-32.209 a 3.7892593,3.7892593 0 0 0 -2.7578,-6.502 z m 308.5644,0.1328 v 37.8926 c 0,3.7893 1.8943,7.5782 7.5781,7.5782 5.6839,0 7.5782,-3.7889 7.5782,-7.5782 v -7.5781 c 0,-3.7892 4.0484,-7.5801 7.58,-7.5801 a 7.5785186,7.5785186 0 0 1 7.5782,7.5801 v 18.9453 a 11.3678,11.3678 0 1 0 22.7343,0 v -3.789 a 7.5785186,7.5785186 0 0 1 7.5801,-7.5782 7.5785186,7.5785186 0 0 0 7.5781,-7.5781 v -7.5801 h -22.7363 v -22.7344 z m -670.3144,30.3145 v 26.5234 a 3.7892593,3.7892593 0 0 0 3.789,3.7891 h 26.5254 v -7.5781 h -22.7363 v -22.7344 z m 98.5214,0 v 22.7344 h -22.7363 v 7.5781 h 26.5254 a 3.7892593,3.7892593 0 0 0 3.7891,-3.7891 v -26.5234 z m 69.0567,7.5781 h 15.1582 v 15.1563 h -15.1582 z m 68.207,0 h 15.1582 v 15.1563 h -15.1582 v -3.2285 a 3.7892593,3.7892593 0 0 0 0,-1.2129 z" /></g><g
       id="g74"
       transform="translate(-997.96683,-384.61535)"><rect
         style="fill:#ffffff;fill-opacity:0.14902;stroke:none;stroke-width:1.53117;stroke-linecap:round;stroke-linejoin:round"
         id="rect48"
         width="960"
         height="160"
         x="1271.075"
         y="1846.002"
         ry="80" /><path
         id="path9"
         style="fill:#ffffff;fill-opacity:1;stroke:none;stroke-width:7.57852;stroke-opacity:1"
         d="m 1301.8152,1872.953 a 3.7892593,3.7892593 0 0 0 -3.7891,3.7891 v 26.5234 h 7.5781 v -22.7344 h 22.7344 v -7.5781 z m 71.996,0 v 7.5781 h 22.7344 v 22.7344 h 7.5781 v -26.5234 a 3.7892593,3.7892593 0 0 0 -3.789,-3.7891 z m 156.211,0 a 3.7892593,3.7892593 0 0 0 -3.791,3.7891 v 30.3144 a 3.7892593,3.7892593 0 0 0 3.791,3.7891 h 30.3125 a 3.7892593,3.7892593 0 0 0 3.789,-3.7891 v -30.3144 a 3.7892593,3.7892593 0 0 0 -3.789,-3.7891 z m 251.793,0 a 3.7892593,3.7892593 0 0 0 -3.7891,3.7891 v 22.7343 a 3.7892593,3.7892593 0 0 0 3.7891,3.7891 h 22.7343 a 3.7892593,3.7892593 0 0 0 3.7891,-3.7891 v -3.789 h 45.4726 v 11.3691 a 3.7892593,3.7892593 0 0 0 3.7891,3.7891 h 22.7344 a 3.7892593,3.7892593 0 0 0 3.789,-3.7891 v -22.7363 a 3.7892593,3.7892593 0 0 0 -3.789,-3.7891 h -22.7344 a 3.7892593,3.7892593 0 0 0 -3.7891,3.7891 v 3.7891 h -45.4726 v -11.3672 a 3.7892593,3.7892593 0 0 0 -3.7891,-3.7891 z m 163.789,0 v 15.1563 h -7.5781 v 30.3144 h 7.5781 v 15.1563 h 15.1563 v -60.627 z m 75.7852,0 v 60.627 h 15.1562 v -15.1563 h 7.5781 v -30.3144 h -7.5781 v -15.1563 z m 76.6367,0 v 15.1563 h 15.1562 v -15.1563 z m 15.1562,15.1563 v 15.1582 h 15.1563 v -15.1582 z m 15.1563,0 h 15.1582 v -15.1563 h -15.1582 z m 15.1582,0 v 15.1582 h 15.1562 v -15.1582 z m 15.1562,0 h 15.1582 v -15.1563 h -15.1582 z m 15.1582,0 v 15.1582 h 15.1563 v -15.1582 z m 15.1563,0 h 15.1562 v -15.1563 h -15.1562 z m 0,15.1582 v 15.1562 h 15.1562 v -15.1562 z m -15.1563,0 h -15.1582 v 15.1562 h 15.1582 z m -30.3144,0 h -15.1582 v 15.1562 h 15.1582 z m -30.3145,0 h -15.1562 v 15.1562 h 15.1562 z m -412.0214,-30.2071 c -3.3529,0.1158 -6.8801,1.6816 -9.8907,4.6856 l -13.2617,13.2617 a 3.7892593,3.7892593 0 0 0 0,5.3672 l 22.7363,22.7344 a 3.7892593,3.7892593 0 0 0 5.3653,0 l 13.2617,-13.2618 c 3.433,-3.4406 4.9875,-7.5554 4.6465,-11.3144 -0.341,-3.7589 -2.3124,-6.8672 -4.6465,-9.209 l -7.5781,-7.5781 c -2.3493,-2.3342 -5.4557,-4.3036 -9.2071,-4.6446 -0.4698,-0.043 -0.9468,-0.058 -1.4257,-0.041 z m -239.3457,7.4707 a 3.7892593,3.7892593 0 0 0 -3.7891,3.7891 v 22.7363 a 3.7892593,3.7892593 0 0 0 3.7891,3.7891 h 3.789 v 37.8926 h -3.789 a 3.7892593,3.7892593 0 0 0 -3.7891,3.789 v 22.7344 a 3.7892593,3.7892593 0 0 0 3.7891,3.7891 h 22.7343 a 3.7892593,3.7892593 0 0 0 3.7891,-3.7891 v -3.8496 h 37.8926 v 3.8496 a 3.7892593,3.7892593 0 0 0 3.791,3.7891 h 22.7344 a 3.7892593,3.7892593 0 0 0 3.789,-3.7891 v -22.7344 a 3.7892593,3.7892593 0 0 0 -3.789,-3.789 h -3.7891 v -26.5254 a 3.7892593,3.7892593 0 1 0 -7.5781,0 v 26.5254 h -11.3672 a 3.7892593,3.7892593 0 0 0 -3.791,3.789 v 11.3067 h -37.8926 v -11.3067 a 3.7892593,3.7892593 0 0 0 -3.7891,-3.789 h -11.3672 v -37.8926 h 11.3672 a 3.7892593,3.7892593 0 0 0 3.7891,-3.7891 v -11.4297 h 26.5254 a 3.7892593,3.7892593 0 1 0 0,-7.5781 h -26.5254 v -3.7285 a 3.7892593,3.7892593 0 0 0 -3.7891,-3.7891 z m 323.789,0 h 15.1563 v 15.1563 h -15.1563 z m -320,7.5782 h 15.1563 v 15.1582 h -15.1563 z m 395.7852,0 h 15.1562 v 15.1562 h -15.1562 z m -536.8399,7.5781 a 3.7892593,3.7892593 0 0 0 -3.789,3.789 v 53.0508 a 3.7892593,3.7892593 0 0 0 3.789,3.7891 h 53.0508 a 3.7892593,3.7892593 0 0 0 3.7891,-3.7891 v -53.0508 a 3.7892593,3.7892593 0 0 0 -3.7891,-3.789 z m 643.7891,0 v 15.1582 h 45.4726 v -15.1582 z m -299.0762,5.582 a 3.7892593,3.7892593 0 0 0 -2.6211,1.1074 l -1.8945,1.8946 a 3.7892593,3.7892593 0 0 0 0,5.3652 l 22.7344,22.7363 a 3.7892593,3.7892593 0 0 0 5.3672,0 l 1.8945,-1.8965 a 3.7892593,3.7892593 0 0 0 0,-5.3652 l -22.7363,-22.7344 a 3.7892593,3.7892593 0 0 0 -2.7442,-1.1074 z m 146.6563,1.9981 v 53.0488 c 0,3.7892 1.8942,7.5781 7.5781,7.5781 5.6839,0 7.5781,-3.7889 7.5781,-7.5781 v -7.5781 c 0,-3.7893 4.0465,-7.5801 7.5781,-7.5801 a 7.5785186,7.5785186 0 0 1 7.5782,7.5801 v 18.9453 a 11.368164,11.368164 0 1 0 22.7363,0 v -11.3672 a 7.5785186,7.5785186 0 0 1 7.5781,-7.5781 7.5785186,7.5785186 0 0 0 7.5781,-7.5801 v -23.4024 a 11.367778,11.367778 0 0 1 -3.789,0.668 h -22.7344 a 11.367778,11.367778 0 0 1 -11.3691,-11.3672 v -3.789 z m -156.1446,15.0234 a 3.7892593,3.7892593 0 0 0 -2.6054,1.1367 l -32.209,32.209 c -6.3508,6.3583 -8.094,13.3241 -6.0781,18.6973 2.0159,5.3807 7.1832,8.6152 12.5488,8.6152 h 32.209 c 7.5786,0 15.1582,-6.0469 15.1582,-15.1562 v -26.5254 a 3.79005,3.79005 0 1 0 -7.5801,0 v 26.5254 c 0,5.0397 -3.8191,7.5781 -7.5781,7.5781 h -32.209 a 6.0476578,6.0476578 0 0 1 -5.4473,-3.6973 c -0.8261,-2.1978 -0.6828,-5.6624 4.3418,-10.6719 l 32.209,-32.2089 a 3.7892593,3.7892593 0 0 0 -2.7598,-6.502 z m 308.5645,0.1328 v 37.8926 c 0,3.7893 1.8963,7.5781 7.5801,7.5781 5.6839,0 7.5781,-3.7888 7.5781,-7.5781 v -7.5781 c 0,-3.7892 4.0465,-7.5801 7.5781,-7.5801 a 7.5785186,7.5785186 0 0 1 7.5781,7.5801 v 18.9453 a 11.3682,11.3682 0 1 0 22.7364,0 v -3.7891 a 7.5785186,7.5785186 0 0 1 7.5781,-7.5781 7.5785186,7.5785186 0 0 0 7.5781,-7.5781 v -7.5801 h -22.7344 v -22.7344 z m 129.6875,7.5781 v 26.5254 a 11.367778,11.367778 0 1 0 22.7344,0 v -3.789 c 0,-3.7893 4.0465,-7.5801 7.5781,-7.5801 a 7.5785186,7.5785186 0 0 1 7.5801,7.5801 v 18.9453 a 11.367778,11.367778 0 1 0 22.7343,0 v -11.3672 a 7.5785186,7.5785186 0 0 1 7.5782,-7.5781 7.5785186,7.5785186 0 0 0 7.58,-7.5801 v -15.1563 h -60.6289 z m -800,22.7364 v 26.5234 a 3.7892593,3.7892593 0 0 0 3.7891,3.7891 h 26.5234 v -7.5782 h -22.7344 v -22.7343 z m 98.5195,0 v 22.7343 h -22.7344 v 7.5782 h 26.5235 a 3.7892593,3.7892593 0 0 0 3.789,-3.7891 v -26.5234 z m 69.0586,7.5781 h 15.1563 v 15.1562 h -15.1563 z m 68.207,0 h 15.1563 v 15.1562 h -15.1563 v -3.2285 a 3.7892593,3.7892593 0 0 0 0,-1.2129 z" /></g><circle
       style="fill:#008080;fill-opacity:1;stroke:none;stroke-width:0.841242;stroke-linecap:round;stroke-linejoin:round;stroke-opacity:1"
       id="path68"
       cx="104.83805"
       cy="730.15997"
       r="80" /><circle
       style="fill:#4772b3;fill-opacity:1;stroke:none;stroke-width:0.841242;stroke-linecap:round;stroke-linejoin:round;stroke-opacity:1"
       id="circle68"
       cx="104.83805"
       cy="932.96661"
       r="80" /><circle
       style="fill:#ff5597;fill-opacity:1;stroke:none;stroke-width:0.841242;stroke-linecap:round;stroke-linejoin:round;stroke-opacity:1"
       id="circle69"
       cx="104.83805"
       cy="1135.7733"
       r="80" /><circle
       style="fill:#ff7f2a;fill-opacity:1;stroke:none;stroke-width:0.841242;stroke-linecap:round;stroke-linejoin:round;stroke-opacity:1"
       id="circle70"
       cx="104.83805"
       cy="1338.58"
       r="80" /><circle
       style="fill:#008080;fill-opacity:1;stroke:none;stroke-width:0.841242;stroke-linecap:round;stroke-linejoin:round;stroke-opacity:1"
       id="circle71"
       cx="104.83805"
       cy="1541.3866"
       r="80" /><circle
       style="fill:#000000;fill-opacity:0.301961;stroke:none;stroke-width:0.841242;stroke-linecap:round;stroke-linejoin:round;stroke-opacity:1"
       id="circle73"
       cx="104.83805"
       cy="1785.6952"
       r="80" /></g></svg>
