<?xml version="1.0" encoding="UTF-8" standalone="no"?>
<!-- Created with Inkscape (http://www.inkscape.org/) -->

<svg
   version="1.1"
   id="svg1"
   width="960"
   height="160"
   viewBox="0 0 960 160"
   sodipodi:docname="notice_round_backup.svg"
   inkscape:version="1.4 (e7c3feb100, 2024-10-09)"
   xml:space="preserve"
   inkscape:export-filename="LATTICEOBJECT.png"
   inkscape:export-xdpi="96"
   inkscape:export-ydpi="96"
   xmlns:inkscape="http://www.inkscape.org/namespaces/inkscape"
   xmlns:sodipodi="http://sodipodi.sourceforge.net/DTD/sodipodi-0.dtd"
   xmlns="http://www.w3.org/2000/svg"
   xmlns:svg="http://www.w3.org/2000/svg"><defs
     id="defs1">
        
        
    
        
        
    
        
    
        
    
        
        
    
        
        
    
        
        
    
        
        
    
            
        
            
        
        
        
    
        
        
    
        
        
    
        
    
        
        
    
        
        
    
            
        
            
        
            
        
        
        
    
        
        
    
        
        
    
            
        
            
        
        
        
    
        
        
    
            
        </defs><sodipodi:namedview
     id="namedview1"
     pagecolor="#ffffff"
     bordercolor="#999999"
     borderopacity="1"
     inkscape:showpageshadow="2"
     inkscape:pageopacity="0"
     inkscape:pagecheckerboard="true"
     inkscape:deskcolor="#ffffff"
     inkscape:zoom="1.6693377"
     inkscape:cx="53.913597"
     inkscape:cy="-2.6956799"
     inkscape:window-width="2560"
     inkscape:window-height="1354"
     inkscape:window-x="0"
     inkscape:window-y="0"
     inkscape:window-maximized="1"
     inkscape:current-layer="g1"
     showborder="true" /><g
     inkscape:groupmode="layer"
     inkscape:label="Image"
     id="g1"
     transform="translate(-273.10812,-1461.3866)"><rect
       style="fill:#3a3a3a;fill-opacity:1;stroke-width:1.93764;stroke-linecap:round;stroke-linejoin:round"
       id="rect4"
       width="3097.2551"
       height="2238.0818"
       x="-795.51947"
       y="2.3457031"
       ry="16.67823" /><rect
       style="fill:#ffffff;fill-opacity:0.14902;stroke:none;stroke-width:1.53117;stroke-linecap:round;stroke-linejoin:round"
       id="rect48"
       width="960"
       height="160"
       x="273.10812"
       y="1461.3866"
       ry="80" /><rect
       style="fill:#ffffff;fill-opacity:0.14902;stroke:none;stroke-width:1.53117;stroke-linecap:round;stroke-linejoin:round"
       id="rect56"
       width="960"
       height="160"
       x="273.10809"
       y="1258.58"
       ry="80" /><rect
       style="fill:#ffffff;fill-opacity:0.14902;stroke:none;stroke-width:0.884021;stroke-linecap:round;stroke-linejoin:round"
       id="rect5"
       width="320"
       height="160"
       x="273.10809"
       y="650.15997"
       ry="80" /><rect
       style="fill:#ffffff;fill-opacity:0.14902;stroke:none;stroke-width:1.0827;stroke-linecap:round;stroke-linejoin:round"
       id="rect49"
       width="480"
       height="160"
       x="273.10815"
       y="852.96661"
       ry="80" /><rect
       style="fill:#ffffff;fill-opacity:0.14902;stroke:none;stroke-width:1.0827;stroke-linecap:round;stroke-linejoin:round"
       id="rect57"
       width="480"
       height="160"
       x="273.10809"
       y="1055.7733"
       ry="80" /><path
       id="path178"
       style="fill:#ffffff;fill-opacity:1;stroke-width:6.34687"
       d="m 528.97526,685.73175 a 3.1734345,3.1734345 0 0 0 -3.17327,3.17326 v 25.38779 a 3.1734345,3.1734345 0 0 0 3.17327,3.17327 h 25.38616 a 3.1734345,3.1734345 0 0 0 3.1749,-3.17327 v -25.38779 a 3.1734345,3.1734345 0 0 0 -3.1749,-3.17326 z m -57.12213,6.34653 a 3.1734345,3.1734345 0 0 0 -3.17327,3.17327 v 19.04125 a 3.1734345,3.1734345 0 0 0 3.17327,3.17327 h 3.17327 v 31.73433 h -3.17327 a 3.1734345,3.1734345 0 0 0 -3.17327,3.17328 v 19.04125 a 3.1734345,3.1734345 0 0 0 3.17327,3.17327 h 19.04125 a 3.1734345,3.1734345 0 0 0 3.17327,-3.17327 v -3.22398 h 31.73434 v 3.22398 a 3.1734345,3.1734345 0 0 0 3.17327,3.17327 h 19.03962 a 3.1734345,3.1734345 0 0 0 3.17326,-3.17327 v -19.04125 a 3.1734345,3.1734345 0 0 0 -3.17326,-3.17328 h -3.17327 v -22.21452 a 3.1734345,3.1734345 0 1 0 -6.34655,0 v 22.21452 h -9.5198 a 3.1734345,3.1734345 0 0 0 -3.17327,3.17328 v 9.4691 h -31.73434 v -9.4691 a 3.1734345,3.1734345 0 0 0 -3.17327,-3.17328 h -9.52144 v -31.73433 h 9.52144 a 3.1734345,3.1734345 0 0 0 3.17327,-3.17327 v -9.57051 h 22.21289 a 3.17409,3.17409 0 1 0 0,-6.34818 h -22.21289 v -3.12256 a 3.1734345,3.1734345 0 0 0 -3.17327,-3.17327 z m 3.17327,6.34654 h 12.69308 v 12.69472 H 475.0264 Z m 0,57.12213 h 12.69308 v 12.69471 H 475.0264 Z m 57.12213,0 h 12.69308 v 12.69471 h -12.69308 v -2.70382 a 3.1734345,3.1734345 0 0 0 0,-1.01578 z" /><path
       id="path182"
       style="fill:#ffffff;fill-opacity:1;stroke-width:6.34687"
       d="m 311.85313,685.73175 a 3.1734345,3.1734345 0 0 0 -3.17327,3.17326 v 22.21453 h 6.34655 v -19.04126 h 19.04124 v -6.34653 z m 60.2954,0 v 6.34653 h 19.03962 v 19.04126 h 6.34817 v -22.21453 a 3.1734345,3.1734345 0 0 0 -3.17326,-3.17326 z m -41.25414,19.04124 a 3.1734345,3.1734345 0 0 0 -3.1749,3.17328 v 44.42741 a 3.1734345,3.1734345 0 0 0 3.1749,3.17327 h 44.42741 a 3.1734345,3.1734345 0 0 0 3.17327,-3.17327 v -44.42741 a 3.1734345,3.1734345 0 0 0 -3.17327,-3.17328 z m -22.21453,44.42741 v 22.21453 a 3.1734345,3.1734345 0 0 0 3.17327,3.17327 h 22.21452 v -6.34654 H 315.02641 V 749.2004 Z m 82.50829,0 v 19.04126 h -19.03962 v 6.34654 h 22.21453 a 3.1734345,3.1734345 0 0 0 3.17326,-3.17327 V 749.2004 Z" /><path
       id="path175"
       style="fill:#ffffff;fill-opacity:1;stroke-width:6.34687"
       d="m 337.21883,891.71223 a 3.1734345,3.1734345 0 0 0 -2.24092,0.9258 l -12.65546,12.65547 c -3.11635,2.9957 1.49099,7.6046 4.48675,4.4884 l 11.7231,-11.72313 h 52.63538 v 52.63373 l -17.18145,17.1815 h -52.60921 l 0.0245,-19.0854 -6.34654,-0.011 -0.0441,22.2701 a 3.1734345,3.1734345 0 0 0 3.17326,3.1733 h 57.12213 a 3.1734345,3.1734345 0 0 0 2.24745,-0.9324 l 19.03963,-19.0412 a 3.1734345,3.1734345 0 0 0 0.92744,-2.2393 v -57.12213 a 3.1734345,3.1734345 0 0 0 -3.17327,-3.17326 z m -25.35018,25.35017 a 3.1734345,3.1734345 0 0 0 -3.17326,3.1733 v 19.0412 a 3.1734345,3.1734345 0 0 0 3.17326,3.1733 h 19.04126 a 3.1734345,3.1734345 0 0 0 3.17327,-3.1733 v -19.0412 a 3.1734345,3.1734345 0 0 0 -3.17327,-3.1733 z" /><path
       id="path174"
       style="fill:#ffffff;fill-opacity:1;stroke-width:6.34687"
       d="m 494.06685,888.55557 a 3.1734345,3.1734345 0 0 0 -2.24583,0.934 l -19.04125,19.03959 a 3.1734345,3.1734345 0 0 0 -0.92581,2.2409 v 57.1222 a 3.1734345,3.1734345 0 0 0 3.18636,3.1732 l 28.60522,-0.044 -0.0131,-6.3465 -25.43196,0.044 v -52.6223 l 17.18145,-17.18799 h 52.63375 v 52.63539 l -11.71656,11.7166 c -3.11635,2.9893 1.49899,7.603 4.48838,4.4867 l 12.64237,-12.6424 a 3.1734345,3.1734345 0 0 0 0.93236,-2.2474 v -57.12871 a 3.1734345,3.1734345 0 0 0 -3.17328,-3.17328 z m 19.08541,25.35349 a 3.1734345,3.1734345 0 0 0 -3.17326,3.1732 v 57.1222 a 3.1734345,3.1734345 0 0 0 3.17326,3.1732 h 12.69472 a 3.1734345,3.1734345 0 0 0 3.17327,-3.1732 v -57.1222 a 3.1734345,3.1734345 0 0 0 -3.17327,-3.1732 z" /><path
       id="path173"
       style="fill:#ffffff;fill-opacity:1;stroke-width:6.34687"
       d="m 657.21231,888.56376 a 3.1734345,3.1734345 0 0 0 -2.24092,0.92745 l -12.64892,12.64896 a 2.8180099,2.8180099 0 0 0 -0.9258,2.2409 v 3.1732 h 6.34654 l 0.0196,-1.8794 10.76295,-10.76456 h 52.63538 v 52.63536 l -10.76458,10.7711 -1.87288,0.012 v 6.3482 h 3.1749 a 2.8370504,2.8370504 0 0 0 2.19512,-0.8833 l 12.69472,-12.6931 a 3.1734345,3.1734345 0 0 0 0.92581,-2.2409 v -57.12211 a 3.1734345,3.1734345 0 0 0 -3.17328,-3.17327 z m -25.33709,25.33711 a 3.1734345,3.1734345 0 0 0 -3.17327,3.1733 v 57.1221 a 3.1734345,3.1734345 0 0 0 3.17327,3.1732 h 57.12213 a 3.1734345,3.1734345 0 0 0 3.17327,-3.1732 v -57.1221 a 3.1734345,3.1734345 0 0 0 -3.17327,-3.1733 z" /><path
       id="path163"
       style="fill:#ffffff;fill-opacity:1;stroke-width:6.34687"
       d="m 528.97526,1091.3451 a 3.1734345,3.1734345 0 0 0 -3.17327,3.1733 v 25.3878 a 3.1734345,3.1734345 0 0 0 3.17327,3.1732 h 25.38616 a 3.1734345,3.1734345 0 0 0 3.1749,-3.1732 v -25.3878 a 3.1734345,3.1734345 0 0 0 -3.1749,-3.1733 z m -57.12213,6.3466 a 3.1734345,3.1734345 0 0 0 -3.17327,3.1749 v 19.0396 a 3.1734345,3.1734345 0 0 0 3.17327,3.1732 h 3.17327 v 31.7344 h -3.17327 a 3.1734345,3.1734345 0 0 0 -3.17327,3.1733 v 19.0412 a 3.1734345,3.1734345 0 0 0 3.17327,3.1732 h 19.04125 a 3.1734345,3.1734345 0 0 0 3.17327,-3.1732 v -3.224 h 31.73434 v 3.224 a 3.1734345,3.1734345 0 0 0 3.17327,3.1732 h 19.03962 a 3.1734345,3.1734345 0 0 0 3.17326,-3.1732 v -19.0412 a 3.1734345,3.1734345 0 0 0 -3.17326,-3.1733 h -3.17327 v -22.2129 a 3.1734345,3.1734345 0 1 0 -6.34655,0 v 22.2129 h -9.5198 a 3.1734345,3.1734345 0 0 0 -3.17327,3.1733 v 9.4707 h -31.73434 v -9.4707 a 3.1734345,3.1734345 0 0 0 -3.17327,-3.1733 h -9.52144 v -31.7344 h 9.52144 a 3.1734345,3.1734345 0 0 0 3.17327,-3.1732 v -9.5706 h 22.21289 a 3.1734345,3.1734345 0 1 0 0,-6.3465 h -22.21289 v -3.1225 a 3.1734345,3.1734345 0 0 0 -3.17327,-3.1749 z m 3.17327,6.3481 h 12.69308 v 12.6931 H 475.0264 Z m 0,57.1237 h 12.69308 v 12.6932 H 475.0264 Z m 57.12213,0 h 12.69308 v 12.6932 h -12.69308 v -2.7038 a 3.1734345,3.1734345 0 0 0 0,-1.0158 z" /><path
       id="path168"
       style="fill:#ffffff;fill-opacity:1;stroke-width:6.34687"
       d="m 311.85313,1091.3443 a 3.1734345,3.1734345 0 0 0 -3.17327,3.1733 v 22.2145 h 6.34655 v -19.0412 h 19.04124 v -6.3466 z m 60.2954,0 v 6.3466 h 19.03962 v 19.0412 h 6.34817 v -22.2145 a 3.1734345,3.1734345 0 0 0 -3.17326,-3.1733 z m -41.25414,19.0429 a 3.1734345,3.1734345 0 0 0 -3.1749,3.1733 v 44.4274 a 3.1734345,3.1734345 0 0 0 3.1749,3.1748 h 44.42741 a 3.1734345,3.1734345 0 0 0 3.17327,-3.1748 v -44.4274 a 3.1734345,3.1734345 0 0 0 -3.17327,-3.1733 z m -22.21453,44.4274 v 22.2145 a 3.1734345,3.1734345 0 0 0 3.17327,3.1733 h 22.21452 v -6.3465 h -19.04124 v -19.0413 z m 82.50829,0 v 19.0413 h -19.03962 v 6.3465 h 22.21453 a 3.1734345,3.1734345 0 0 0 3.17326,-3.1733 v -22.2145 z" /><path
       id="path165"
       style="fill:#ffffff;fill-opacity:1;stroke-width:6.34687"
       d="m 682.62547,1091.2708 c -5.20444,0 -9.49527,4.2893 -9.49527,9.4937 0,5.2045 4.28446,9.4953 9.49527,9.4953 5.20445,0 9.49527,-4.2845 9.49527,-9.4953 0,-5.2044 -4.29082,-9.4937 -9.49527,-9.4937 z m -50.80012,6.3466 a 3.1734345,3.1734345 0 0 0 -3.17327,3.1733 v 19.0413 a 3.1734345,3.1734345 0 0 0 3.17327,3.1732 h 19.04126 a 3.1734345,3.1734345 0 0 0 3.17326,-3.1732 v -19.0413 a 3.1734345,3.1734345 0 0 0 -3.17326,-3.1733 z m 31.73434,12.6931 c -4.29051,-0.064 -4.29051,6.41 0,6.3465 h 9.60977 l -0.09,20.8635 c -10.53586,8.9491 -20.56977,16.641 -25.31092,38.7662 -1.12968,4.2778 5.45818,5.6997 6.19441,1.3331 4.29051,-19.9927 12.21208,-25.9463 22.32903,-34.4447 10.05346,8.5048 17.96748,14.451 22.34048,34.4627 0.84409,4.227 7.20358,2.8311 6.19441,-1.3642 -4.84265,-22.1823 -14.92223,-29.8554 -25.40088,-38.83 l 0.09,-20.7866 h 34.92069 c 4.16991,-0.057 4.16991,-6.283 0,-6.3465 h -19.31441 a 15.829091,15.829091 0 0 1 -12.50334,6.2958 c -5.05847,0 -9.57071,-2.5067 -12.49025,-6.2958 h -0.12758 z" /><path
       id="path144"
       style="fill:#ffffff;fill-opacity:1;stroke-width:6.34687"
       d="m 528.97525,1294.1509 a 3.1734345,3.1734345 0 0 0 -3.17327,3.1733 v 25.3862 a 3.1734345,3.1734345 0 0 0 3.17327,3.1749 h 25.3878 a 3.1734345,3.1734345 0 0 0 3.17327,-3.1749 v -25.3862 a 3.1734345,3.1734345 0 0 0 -3.17327,-3.1733 z m -57.12212,6.3499 a 3.1734345,3.1734345 0 0 0 -3.17327,3.1732 v 19.0396 a 3.1734345,3.1734345 0 0 0 3.17327,3.1749 h 3.17326 v 31.7344 h -3.17326 a 3.1734345,3.1734345 0 0 0 -3.17327,3.1733 v 19.0395 a 3.1734345,3.1734345 0 0 0 3.17327,3.1733 h 19.04125 a 3.1734345,3.1734345 0 0 0 3.17327,-3.1733 v -3.2239 h 31.73433 v 3.2239 a 3.1734345,3.1734345 0 0 0 3.17327,3.1733 h 19.04126 a 3.1734345,3.1734345 0 0 0 3.17326,-3.1733 v -19.0395 a 3.1734345,3.1734345 0 0 0 -3.17326,-3.1733 h -3.17327 v -22.2146 a 3.1740967,3.1740967 0 1 0 -6.34818,0 v 22.2146 h -9.51981 a 3.1734345,3.1734345 0 0 0 -3.17327,3.1733 v 9.469 h -31.73433 v -9.469 a 3.1734345,3.1734345 0 0 0 -3.17327,-3.1733 h -9.51981 v -31.7344 h 9.51981 a 3.1734345,3.1734345 0 0 0 3.17327,-3.1749 v -9.5705 h 22.21452 a 3.1734345,3.1734345 0 1 0 0,-6.3466 h -22.21452 v -3.1225 a 3.1734345,3.1734345 0 0 0 -3.17327,-3.1732 z m 3.17326,6.3465 h 12.69472 v 12.693 h -12.69472 z m 0,57.1221 h 12.69472 v 12.6931 h -12.69472 z m 57.12213,0 h 12.69472 v 12.6931 h -12.69472 v -2.7038 a 3.1734345,3.1734345 0 0 0 0,-1.0158 z" /><path
       id="path156"
       style="fill:#ffffff;fill-opacity:1;stroke-width:6.34687"
       d="m 311.85313,1294.1509 a 3.1734345,3.1734345 0 0 0 -3.17327,3.1733 v 22.2129 h 6.34654 v -19.0396 h 19.04125 v -6.3466 z m 60.29539,0 v 6.3466 h 19.04126 v 19.0396 h 6.34654 v -22.2129 a 3.1734345,3.1734345 0 0 0 -3.17327,-3.1733 z m -41.25414,19.0429 a 3.1734345,3.1734345 0 0 0 -3.17326,3.1733 v 44.4291 a 3.1734345,3.1734345 0 0 0 3.17326,3.1732 h 44.42742 a 3.1734345,3.1734345 0 0 0 3.17326,-3.1732 v -44.4291 a 3.1734345,3.1734345 0 0 0 -3.17326,-3.1733 z m -22.21452,44.4291 v 22.2128 a 3.1734345,3.1734345 0 0 0 3.17327,3.1733 h 22.21452 v -6.3465 H 315.0264 v -19.0396 z m 82.50992,0 v 19.0396 h -19.04126 v 6.3465 h 22.21453 a 3.1734345,3.1734345 0 0 0 3.17327,-3.1733 v -22.2128 z" /><path
       id="path154"
       style="fill:#ffffff;fill-opacity:1;stroke-width:6.34687"
       d="m 955.02648,1294.1008 v 12.6931 h -6.34653 v 25.3878 h 6.34653 v 12.6931 h 12.69472 v -50.774 z m 63.46862,0 v 50.774 h 12.6947 v -12.6931 h 6.3466 v -25.3878 h -6.3466 v -12.6931 z m -44.42736,19.0429 v 12.6947 h 38.08086 v -12.6947 z m 0,19.0412 v 31.7344 c 0,3.1735 1.58647,6.3465 6.34654,6.3465 4.76016,0 6.34654,-3.173 6.34654,-6.3465 v -6.3465 c 0,-3.1734 3.39052,-6.3482 6.34817,-6.3482 a 6.346869,6.346869 0 0 1 6.34651,6.3482 v 15.8663 a 9.520322,9.520322 0 1 0 19.0396,0 v -3.1733 a 6.346869,6.346869 0 0 1 6.3482,-6.3465 6.346869,6.346869 0 0 0 6.3465,-6.3465 v -6.3482 h -19.0412 v -19.0397 z" /><path
       id="path153"
       style="fill:#ffffff;fill-opacity:1;stroke-width:6.34687"
       d="m 698.90606,1294.2414 c -0.19876,-0.01 -0.39973,-0.01 -0.6003,0 -2.80799,0.097 -5.7619,1.4083 -8.28322,3.924 l -11.10645,11.1064 a 3.1734345,3.1734345 0 0 0 0,4.4933 l 19.03963,19.0413 a 3.1734345,3.1734345 0 0 0 4.49328,0 L 713.55707,1321.7 c 2.87508,-2.8815 4.1753,-6.3276 3.88972,-9.4757 -0.28558,-3.148 -1.93495,-5.7512 -3.88972,-7.7124 l -6.34653,-6.3465 c -1.9675,-1.9549 -4.57062,-3.6058 -7.71235,-3.8914 -0.19677,-0.018 -0.39337,-0.028 -0.59213,-0.034 z m -27.31465,23.6293 a 3.1734345,3.1734345 0 0 0 -2.19676,0.9275 l -1.58663,1.5867 a 3.1734345,3.1734345 0 0 0 0,4.4932 l 19.04125,19.0396 a 3.1734345,3.1734345 0 0 0 4.49328,0 l 1.58664,-1.5866 a 3.1734345,3.1734345 0 0 0 0,-4.4933 l -19.03962,-19.0396 a 3.1734345,3.1734345 0 0 0 -2.29816,-0.9275 z m -7.94626,14.2552 a 3.1734345,3.1734345 0 0 0 -2.18367,0.952 l -26.97443,26.9744 c -5.31868,5.325 -6.77859,11.157 -5.09031,15.657 1.68827,4.5062 6.01745,7.2167 10.51104,7.2167 h 26.97443 c 6.34693,0 12.69307,-5.064 12.69307,-12.693 v -22.2145 a 3.1734345,3.1734345 0 1 0 -6.34653,0 v 22.2145 c 0,4.2207 -3.19845,6.3465 -6.34654,6.3465 h -26.97443 a 5.0648014,5.0648014 0 0 1 -4.56362,-3.098 c -0.69184,-1.8406 -0.57183,-4.7405 3.63618,-8.9358 l 26.97442,-26.9745 a 3.1734345,3.1734345 0 0 0 -2.30961,-5.4453 z" /><path
       id="path152"
       style="fill:#ffffff;fill-opacity:1;stroke-width:6.34687"
       d="m 1111.8532,1294.1392 a 3.1734345,3.1734345 0 0 0 -3.1733,3.1733 v 19.0396 a 3.1734345,3.1734345 0 0 0 3.1733,3.1733 h 19.0412 a 3.1734345,3.1734345 0 0 0 3.1733,-3.1733 v -3.1733 h 38.0809 v 9.5199 a 3.1734345,3.1734345 0 0 0 3.1733,3.1749 h 19.0412 a 3.1734345,3.1734345 0 0 0 3.1733,-3.1749 v -19.0397 a 3.1734345,3.1734345 0 0 0 -3.1733,-3.1732 h -19.0412 a 3.1734345,3.1734345 0 0 0 -3.1733,3.1732 v 3.1733 h -38.0809 v -9.5198 a 3.1734345,3.1734345 0 0 0 -3.1733,-3.1733 z m 3.1733,6.3499 h 12.6947 v 12.693 h -12.6947 z m 63.4686,6.3465 h 12.6947 v 12.693 h -12.6947 z m -38.0808,12.693 v 44.4291 c 0,3.1734 1.5863,6.3465 6.3465,6.3465 4.7601,0 6.3482,-3.1731 6.3482,-6.3465 v -6.3465 c 0,-3.1735 3.3888,-6.3482 6.3465,-6.3482 a 6.346869,6.346869 0 0 1 6.3466,6.3482 v 15.8663 a 9.5206268,9.5206268 0 1 0 19.0412,0 v -9.5198 a 6.346869,6.346869 0 0 1 6.3465,-6.3465 6.346869,6.346869 0 0 0 6.3466,-6.3482 v -19.599 a 9.5203035,9.5203035 0 0 1 -3.1733,0.5593 h -19.0412 a 9.5203035,9.5203035 0 0 1 -9.5198,-9.5214 v -3.1733 z" /><path
       id="path148"
       style="fill:#ffffff;fill-opacity:1;stroke-width:6.34687"
       d="m 858.8662,1294.2478 c -0.19878,-0.01 -0.39973,-0.01 -0.60031,0 -2.80799,0.097 -5.76197,1.4084 -8.28321,3.9241 l -4.75991,4.7599 a 3.1734345,3.1734345 0 0 0 0,4.4932 l 19.03963,19.0413 a 3.1734345,3.1734345 0 0 0 4.49492,0 l 4.7599,-4.7599 c 2.87516,-2.8816 4.17529,-6.3292 3.88971,-9.4773 -0.28567,-3.148 -1.93486,-5.7495 -3.88971,-7.7107 l -6.34818,-6.3465 c -1.96749,-1.9549 -4.56899,-3.6058 -7.71071,-3.8914 -0.19673,-0.018 -0.39335,-0.028 -0.59213,-0.034 z m -20.96812,17.2796 a 3.1734345,3.1734345 0 0 0 -2.1902,0.9257 l -39.66751,39.6692 a 3.1734345,3.1734345 0 0 0 -0.83094,1.4787 l -6.34654,25.3862 a 3.1734345,3.1734345 0 0 0 3.839,3.8406 l 25.3878,-6.3466 a 3.1734345,3.1734345 0 0 0 1.47867,-0.826 l 39.66751,-39.6675 a 3.1734345,3.1734345 0 0 0 0,-4.4933 l -19.03962,-19.0413 a 3.1734345,3.1734345 0 0 0 -2.29817,-0.9257 z" /><circle
       style="fill:#008080;fill-opacity:1;stroke:none;stroke-width:0.841242;stroke-linecap:round;stroke-linejoin:round;stroke-opacity:1"
       id="path68"
       cx="104.83805"
       cy="730.15997"
       r="80" /><circle
       style="fill:#4772b3;fill-opacity:1;stroke:none;stroke-width:0.841242;stroke-linecap:round;stroke-linejoin:round;stroke-opacity:1"
       id="circle68"
       cx="104.83805"
       cy="932.96661"
       r="80" /><circle
       style="fill:#9955ff;fill-opacity:1;stroke:none;stroke-width:0.841242;stroke-linecap:round;stroke-linejoin:round;stroke-opacity:1"
       id="circle69"
       cx="104.83805"
       cy="1135.7733"
       r="80" /><circle
       style="fill:#ff7f2a;fill-opacity:1;stroke:none;stroke-width:0.841242;stroke-linecap:round;stroke-linejoin:round;stroke-opacity:1"
       id="circle70"
       cx="104.83805"
       cy="1338.58"
       r="80" /><circle
       style="fill:#008080;fill-opacity:1;stroke:none;stroke-width:0.841242;stroke-linecap:round;stroke-linejoin:round;stroke-opacity:1"
       id="circle71"
       cx="104.83805"
       cy="1541.3866"
       r="80" /><circle
       style="fill:#000000;fill-opacity:0.301961;stroke:none;stroke-width:0.841242;stroke-linecap:round;stroke-linejoin:round;stroke-opacity:1"
       id="circle73"
       cx="104.83805"
       cy="1785.6952"
       r="80" /><path
       id="path122"
       style="fill:#ffffff;fill-opacity:1;stroke:none;stroke-width:6.34687;stroke-opacity:1"
       d="M 1108.6804 1496.91 L 1108.6804 1509.6034 L 1121.3737 1509.6034 L 1121.3737 1496.91 L 1108.6804 1496.91 z M 1121.3737 1509.6034 L 1121.3737 1522.2968 L 1134.0671 1522.2968 L 1134.0671 1509.6034 L 1121.3737 1509.6034 z M 1134.0671 1509.6034 L 1146.7624 1509.6034 L 1146.7624 1496.91 L 1134.0671 1496.91 L 1134.0671 1509.6034 z M 1146.7624 1509.6034 L 1146.7624 1522.2968 L 1159.4558 1522.2968 L 1159.4558 1509.6034 L 1146.7624 1509.6034 z M 1159.4558 1509.6034 L 1172.1491 1509.6034 L 1172.1491 1496.91 L 1159.4558 1496.91 L 1159.4558 1509.6034 z M 1172.1491 1509.6034 L 1172.1491 1522.2968 L 1184.8425 1522.2968 L 1184.8425 1509.6034 L 1172.1491 1509.6034 z M 1184.8425 1509.6034 L 1197.5359 1509.6034 L 1197.5359 1496.91 L 1184.8425 1496.91 L 1184.8425 1509.6034 z M 1184.8425 1522.2968 L 1184.8425 1534.9901 L 1197.5359 1534.9901 L 1197.5359 1522.2968 L 1184.8425 1522.2968 z M 1172.1491 1522.2968 L 1159.4558 1522.2968 L 1159.4558 1534.9901 L 1172.1491 1534.9901 L 1172.1491 1522.2968 z M 1146.7624 1522.2968 L 1134.0671 1522.2968 L 1134.0671 1534.9901 L 1146.7624 1534.9901 L 1146.7624 1522.2968 z M 1121.3737 1522.2968 L 1108.6804 1522.2968 L 1108.6804 1534.9901 L 1121.3737 1534.9901 L 1121.3737 1522.2968 z M 791.85421 1496.955 A 3.1734345 3.1734345 0 0 0 788.68039 1500.1288 L 788.68039 1519.1679 A 3.1734345 3.1734345 0 0 0 791.85421 1522.3417 L 810.89328 1522.3417 A 3.1734345 3.1734345 0 0 0 814.0671 1519.1679 L 814.0671 1515.994 L 852.14914 1515.994 L 852.14914 1525.5155 A 3.1734345 3.1734345 0 0 0 855.32296 1528.6893 L 874.36203 1528.6893 A 3.1734345 3.1734345 0 0 0 877.53585 1525.5155 L 877.53585 1506.4745 A 3.1734345 3.1734345 0 0 0 874.36203 1503.3026 L 855.32296 1503.3026 A 3.1734345 3.1734345 0 0 0 852.14914 1506.4745 L 852.14914 1509.6483 L 814.0671 1509.6483 L 814.0671 1500.1288 A 3.1734345 3.1734345 0 0 0 810.89328 1496.955 L 791.85421 1496.955 z M 311.85421 1496.9589 A 3.1734345 3.1734345 0 0 0 308.68039 1500.1327 L 308.68039 1522.3456 L 315.02804 1522.3456 L 315.02804 1503.3065 L 334.0671 1503.3065 L 334.0671 1496.9589 L 311.85421 1496.9589 z M 372.14914 1496.9589 L 372.14914 1503.3065 L 391.1882 1503.3065 L 391.1882 1522.3456 L 397.53585 1522.3456 L 397.53585 1500.1327 A 3.1734345 3.1734345 0 0 0 394.36203 1496.9589 L 372.14914 1496.9589 z M 528.97531 1496.9589 A 3.1734345 3.1734345 0 0 0 525.80148 1500.1327 L 525.80148 1525.5194 A 3.1734345 3.1734345 0 0 0 528.97531 1528.6932 L 554.36203 1528.6932 A 3.1734345 3.1734345 0 0 0 557.53585 1525.5194 L 557.53585 1500.1327 A 3.1734345 3.1734345 0 0 0 554.36203 1496.9589 L 528.97531 1496.9589 z M 955.02804 1496.9589 L 955.02804 1509.6522 L 948.68039 1509.6522 L 948.68039 1535.0389 L 955.02804 1535.0389 L 955.02804 1547.7323 L 967.71945 1547.7323 L 967.71945 1496.9589 L 955.02804 1496.9589 z M 1018.4968 1496.9589 L 1018.4968 1547.7323 L 1031.1882 1547.7323 L 1031.1882 1535.0389 L 1037.5359 1535.0389 L 1037.5359 1509.6522 L 1031.1882 1509.6522 L 1031.1882 1496.9589 L 1018.4968 1496.9589 z M 698.30343 1497.0487 C 695.49544 1497.1457 692.54155 1498.4587 690.02023 1500.9745 L 678.91476 1512.08 A 3.1734345 3.1734345 0 0 0 678.91476 1516.5741 L 697.95578 1535.6151 A 3.1734345 3.1734345 0 0 0 702.44992 1535.6151 L 713.55539 1524.5077 C 716.43047 1521.6263 717.7316 1518.1812 717.44601 1515.0331 C 717.16043 1511.8851 715.51017 1509.2814 713.55539 1507.3202 L 707.20968 1500.9745 C 705.24218 1499.0196 702.64048 1497.3695 699.49874 1497.0839 C 699.30202 1497.0649 699.10417 1497.0547 698.90499 1497.0487 C 698.70582 1497.0387 698.50396 1497.0387 698.30343 1497.0487 z M 795.02804 1503.3026 L 807.71945 1503.3026 L 807.71945 1515.994 L 795.02804 1515.994 L 795.02804 1503.3026 z M 471.85421 1503.3065 A 3.1734345 3.1734345 0 0 0 468.68039 1506.4784 L 468.68039 1525.5194 A 3.1734345 3.1734345 0 0 0 471.85421 1528.6932 L 475.02804 1528.6932 L 475.02804 1560.4276 L 471.85421 1560.4276 A 3.1734345 3.1734345 0 0 0 468.68039 1563.6014 L 468.68039 1582.6405 A 3.1734345 3.1734345 0 0 0 471.85421 1585.8143 L 490.89328 1585.8143 A 3.1734345 3.1734345 0 0 0 494.0671 1582.6405 L 494.0671 1579.4159 L 525.80148 1579.4159 L 525.80148 1582.6405 A 3.1734345 3.1734345 0 0 0 528.97531 1585.8143 L 548.01632 1585.8143 A 3.1734345 3.1734345 0 0 0 551.1882 1582.6405 L 551.1882 1563.6014 A 3.1734345 3.1734345 0 0 0 548.01632 1560.4276 L 544.84249 1560.4276 L 544.84249 1538.2128 A 3.1734345 3.1734345 0 1 0 538.49679 1538.2128 L 538.49679 1560.4276 L 528.97531 1560.4276 A 3.1734345 3.1734345 0 0 0 525.80148 1563.6014 L 525.80148 1573.0702 L 494.0671 1573.0702 L 494.0671 1563.6014 A 3.1734345 3.1734345 0 0 0 490.89328 1560.4276 L 481.37374 1560.4276 L 481.37374 1528.6932 L 490.89328 1528.6932 A 3.1734345 3.1734345 0 0 0 494.0671 1525.5194 L 494.0671 1515.9471 L 516.28195 1515.9471 A 3.1734345 3.1734345 0 1 0 516.28195 1509.6014 L 494.0671 1509.6014 L 494.0671 1506.4784 A 3.1734345 3.1734345 0 0 0 490.89328 1503.3065 L 471.85421 1503.3065 z M 858.49679 1509.6483 L 871.1882 1509.6483 L 871.1882 1522.3417 L 858.49679 1522.3417 L 858.49679 1509.6483 z M 475.02804 1509.6522 L 487.71945 1509.6522 L 487.71945 1522.3475 L 475.02804 1522.3475 L 475.02804 1509.6522 z M 330.89328 1515.9979 A 3.1734345 3.1734345 0 0 0 327.71945 1519.1718 L 327.71945 1563.6014 A 3.1734345 3.1734345 0 0 0 330.89328 1566.7753 L 375.32296 1566.7753 A 3.1734345 3.1734345 0 0 0 378.49679 1563.6014 L 378.49679 1519.1718 A 3.1734345 3.1734345 0 0 0 375.32296 1515.9979 L 330.89328 1515.9979 z M 974.0671 1515.9979 L 974.0671 1528.6932 L 1012.1491 1528.6932 L 1012.1491 1515.9979 L 974.0671 1515.9979 z M 671.59054 1520.6757 A 3.1734345 3.1734345 0 0 0 669.39523 1521.6034 L 667.80734 1523.1893 A 3.1734345 3.1734345 0 0 0 667.80734 1527.6835 L 686.84835 1546.7245 A 3.1734345 3.1734345 0 0 0 691.34249 1546.7245 L 692.92843 1545.1366 A 3.1734345 3.1734345 0 0 0 692.92843 1540.6425 L 673.88742 1521.6034 A 3.1734345 3.1734345 0 0 0 671.59054 1520.6757 z M 820.41476 1522.3436 L 820.41476 1566.7714 C 820.41476 1569.9448 822.00226 1573.1171 826.76242 1573.1171 C 831.52258 1573.1171 833.10812 1569.9448 833.10812 1566.7714 L 833.10812 1560.4237 C 833.10812 1557.2502 836.49617 1554.0761 839.45382 1554.0761 A 6.346869 6.346869 0 0 1 845.80148 1560.4237 L 845.80148 1576.2909 A 9.5206276 9.5206276 0 1 0 864.84249 1576.2909 L 864.84249 1566.7714 A 6.346869 6.346869 0 0 1 871.1882 1560.4237 A 6.346869 6.346869 0 0 0 877.53585 1554.0761 L 877.53585 1534.4764 A 9.5203035 9.5203035 0 0 1 874.36203 1535.037 L 855.32296 1535.037 A 9.5203035 9.5203035 0 0 1 845.80148 1525.5155 L 845.80148 1522.3436 L 820.41476 1522.3436 z M 663.64328 1534.9315 A 3.1734345 3.1734345 0 0 0 661.46164 1535.8827 L 634.48703 1562.8573 C 629.16835 1568.1823 627.7089 1574.0155 629.39718 1578.5155 C 631.08546 1583.0217 635.41336 1585.7304 639.90695 1585.7304 L 666.88156 1585.7304 C 673.22849 1585.7304 679.57492 1580.6678 679.57492 1573.0389 L 679.57492 1550.8241 A 3.1740967 3.1740967 0 1 0 673.22726 1550.8241 L 673.22726 1573.0389 C 673.22726 1577.2596 670.02965 1579.3846 666.88156 1579.3846 L 639.90695 1579.3846 A 5.0648014 5.0648014 0 0 1 635.34445 1576.2889 C 634.65261 1574.4483 634.77316 1571.5467 638.98117 1567.3514 L 665.95578 1540.3768 A 3.1734345 3.1734345 0 0 0 663.64328 1534.9315 z M 974.0671 1535.0389 L 974.0671 1566.7733 C 974.0671 1569.9468 975.65468 1573.121 980.41476 1573.121 C 985.17492 1573.121 986.76242 1569.9468 986.76242 1566.7733 L 986.76242 1560.4276 C 986.76242 1557.2542 990.15047 1554.08 993.10812 1554.08 A 6.346869 6.346869 0 0 1 999.45382 1560.4276 L 999.45382 1576.2929 A 9.5214844 9.5214844 0 0 0 1018.4968 1576.2929 L 1018.4968 1573.121 A 6.346869 6.346869 0 0 1 1024.8425 1566.7733 A 6.346869 6.346869 0 0 0 1031.1882 1560.4276 L 1031.1882 1554.08 L 1012.1491 1554.08 L 1012.1491 1535.0389 L 974.0671 1535.0389 z M 1108.6804 1541.3378 L 1108.6804 1563.5526 A 9.5205078 9.5205078 0 1 0 1127.7214 1563.5526 L 1127.7214 1560.3788 C 1127.7214 1557.2053 1131.1095 1554.0311 1134.0671 1554.0311 A 6.346869 6.346869 0 0 1 1140.4148 1560.3788 L 1140.4148 1576.244 A 9.5205078 9.5205078 0 1 0 1159.4558 1576.244 L 1159.4558 1566.7245 A 6.346869 6.346869 0 0 1 1165.8015 1560.3788 A 6.346869 6.346869 0 0 0 1172.1491 1554.0311 L 1172.1491 1541.3378 L 1121.3737 1541.3378 L 1108.6804 1541.3378 z M 308.68039 1560.4276 L 308.68039 1582.6405 A 3.1734345 3.1734345 0 0 0 311.85421 1585.8143 L 334.0671 1585.8143 L 334.0671 1579.4667 L 315.02804 1579.4667 L 315.02804 1560.4276 L 308.68039 1560.4276 z M 391.1882 1560.4276 L 391.1882 1579.4667 L 372.14914 1579.4667 L 372.14914 1585.8143 L 394.36203 1585.8143 A 3.1734345 3.1734345 0 0 0 397.53585 1582.6405 L 397.53585 1560.4276 L 391.1882 1560.4276 z M 475.02804 1566.7753 L 487.71945 1566.7753 L 487.71945 1579.4667 L 475.02804 1579.4667 L 475.02804 1566.7753 z M 532.14914 1566.7753 L 544.84249 1566.7753 L 544.84249 1579.4667 L 532.14914 1579.4667 L 532.14914 1576.7636 A 3.1734345 3.1734345 0 0 0 532.14914 1575.7479 L 532.14914 1566.7753 z " /></g></svg>
